<svg xmlns="http://www.w3.org/2000/svg" fill="none" viewBox="0 0 200 200"><g id="being-creative-5--work-being-creative"><g id="cloud"><path id="vector" fill="#959595" d="M162.416 68.8526c3.958 2.228 12.233 6.486 17.214 14.297 3.894 6.105 5.01 14.379 3.332 20.3994-2.049 7.353-4.715 9.855-10.241 14.583-.686.587-.311 1.497.476 2.842.534-.039 1.004-.068 1.419-.09-.26-.483-.511-.959-.797-1.462-.958-1.679 1.463.15 7.174-7.667 7.101-9.721 5.323-27.3924-7.097-37.1944-3.361-2.653-8.541-6.323-12.187-7.703-.461-.175.39-1.045 1.058-3.775-.558-.033-1.138-.069-1.741-.107-.369 2.087-.823 3.554-.913 4.059-.084.468.42.759 2.304 1.819l-.001-.001Z"></path><path id="vector_2" fill="#959595" d="M54.992 39.4503c1.349.368 2.824.813 4.594 1.303 3.202.886.8-.022 4.571-9.622 1.978-5.035 4.57-7.764 8.511-10.744 6.601-4.991 28.255-13.253 38.633.357.204.268 3.703 3.716 6.595 12.582.938 2.876 1.551.5 9.866-1.49 2.086-.499 4.354-.675 6.679-.574.06-.523.119-1.031.174-1.517-2.683-.05-5.321.292-7.793 1.068-4.142 1.302-5.386 1.82-6.275 2.192-.972.407-1.182.188-1.334-.346-1.656-4.547-2.028-6.579-5.113-10.797-4.616-6.312-8.222-8.486-12.721-9.727-7.041-1.941-21.828.315-31.699 8.807-4.059 3.492-7.654 8.702-9.207 17.745-.246 1.435-2.53.013-6.037-.978.185.571.371 1.153.557 1.742l-.001-.001Z"></path><path id="vector_3" fill="#959595" d="M23.398 130.27c-3.738 6.329-3.494 13.698-.636 19.684.339-.41.677-.813 1.015-1.211-.338-.737-.615-1.463-.81-2.159-1.51-5.404-.795-9.962 1.214-15.2.507-1.323 1.005-2.216.288-2.782-5.073-4.002-9.698-7.333-10.697-16.361-1.845-16.6792 14.621-22.7502 15.614-25.1042.312-.739-3.642-4.67-5.807-11.422-.464.133-.89.242-1.275.325 1.005 4.018 2.642 7.686 4.915 10.239 1.356 1.523-.676-.348-8.583 7.714-4.107 4.188-6.307 9.7992-6.525 14.3702-.734 15.379 11.976 20.742 11.287 21.909v-.002Z"></path><path id="vector_4" fill="#959595" d="M151.55 171.522c-3.529 6.109-10.129 12.263-22.947 14.362-1.519.249-4.544 1.082-10.109-.604-2.792-.846-7.27-1.793-12.496-6.57-6.545-5.981-5.506-6.251-6.234-6.292-.022 0-.63-.341-.404.069.135.245-.267.297-2.605 2.765-4.953 5.227-9.031 8.965-16.546 10.793-2.899.705-6.337 1.155-9.319 1.05-14.154-.5-19.425-7.844-22.053-11.325-3.492-4.625-3.84-6.594-5.215-12.097-.696-2.787-.862-1.346-8.56-4.196-.122-.045-.24-.101-.361-.149-.354.385-.703.761-1.051 1.134 2.134.934 4.746 1.747 8.076 2.401.745.146.689 13.914 16.174 22.342 9.559 5.203 23.085 3.801 30.882-.954 4.625-2.82 7.4-6.317 10.847-10.335.404-.471 3.052 4.853 8.1 8.251 7.085 4.769 18.543 7.389 27.923 3.801 7.734-2.958 12.58-7.011 15.663-11.123-.057-1.065.056-2.172.234-3.325l.001.002Z"></path></g><path id="light bulb" fill="#959595" d="M120.789 70.042c-9.081-6.882-20.718-9.415-28.69-8.459-45.403 5.448-51.827 62.739-14.774 80.209 1.506.709 1.629.666 1.654.996.092 1.194 1.209 8.105 1.212 8.127.734 5.958 1.129 5.448.552 5.969-2.067 1.865-2.203 5.944.332 8.267.339.31-1.613 2.363.031 5.704 1.274 2.589 5.518 2.841 5.865 2.927 5.628 1.386 19.145.643 22.636-1.79 2.471-1.721 3.094-3.83 2.699-5.838-.444-2.266-1.09-2.273-.402-3.2.59-.794 1.2-1.91 1.07-4.048-.173-2.868-2.43-3.229-2.37-3.936.213-2.446.566-8.276.662-11.982.018-.689 9.323-3.007 17.769-14.069 13.665-17.897 10.324-44.803-8.249-58.877h.003ZM108.78 163.52c-.48.926-5.111 1.748-5.639 1.839-4.096.71-8.312 1.002-11.715 1.002-4.001 0-6.88-.405-7.121-1.013-.038-.094-.09-.336.234-.55.595-.395 6.702 1.617 22.475-1.531 1.047-.209 1.277-.28 1.659-.085.122.063.172.213.108.337l-.001.001Zm6.153-24.739c-5.971 3.157-4.975 2.159-5.242 6.348-.056.875-.496 6.469-.554 9.579-.02 1.133-20.967 3.446-26.009 1.786-.413-.137-.267-.112-.806-3.236-1.896-10.986-2.127-10.912-2.127-11.17-.002-.848-.72-.738-3.379-2.412-4.293-2.7-7.813-5.116-11.222-8.78-14.646-15.752-14.104-40.716 1.214-55.864 16.85-16.662 45.037-15.507 60.237 3.669 16.347 20.624 7.892 49.5-12.112 60.08Z"></path><g id="camera"><path id="vector_5" fill="#959595" d="M59.408 51.8779c-4.364-9.314-6.57-24.71-11.424-24.698-1.817.004-2.653.271-3.073.409-.32.105-.146.034-.779-1.645-.325-.864 2.42.154 1.917-2.469-.478-2.498-2.98-1.546-7.589.191-2.029.763-2.266.891-2.592 1.133-.258.193-.503.884-.402 1.151.842 2.244 1.541 1.94 3.731 1.256.211-.066.247.463.282.637.144.707.518 1.068.057 1.224-3.442 1.178-3.285 1.18-3.521.864-.759-1.021-3.628-4.174-4.896-4.279-2.659-.22-10.389 2.798-13.086 4.786-.738.545-1.113 1.239-1.131 2.127-.029 1.51-.036 3.023.123 4.528.083.792.045.53-2.448 1.786-.462.233-.096-.348-1.086-1.539-.711-.855-1.535-.794-2.488-.474-2.453.826-5.787 3.314-4.795 5.733.507 1.238.577 1.276.372 1.477-1.189 1.167-1.99 2.32-1.364 4.041 1.084 2.984.819 1.104 5.711 15.552.826 2.441 2.19 6.353 3.301 8.679 1.248 2.612 4.192 3.999 6.575 3.88 5.336.16 35.357-14.774 38.339-17.397 2.1-1.847 1.452-4.42.265-6.954l.001.001Zm-51.046-3.846c.016-1.853 2.585-1.849 2.607.047.022 1.786-2.623 1.782-2.607-.047Zm.179-5.486c-.446.349-.944.583-.995.343-.123-.579-.784-1.184.044-2.266.895-1.171 2.529-2.271 4.019-2.684.812-.227.846.041 1.658 1.429.128.22-.096.202-1.396.956-2.286 1.326-2.814 1.818-3.33 2.221v.001Zm4.681 5.036c-1.927-.047-1.485-2.933.135-2.78.657-.004 1.259.597 1.283 1.286.029.779-.631 1.514-1.418 1.494Zm27.49-20.886c2.112-.727 2.094-.767 2.195-.527.682 1.636.788 1.712.525 1.789-2.363.682-2.345.682-2.403.482-.449-1.513-.54-1.667-.317-1.744Zm-2.064 7.008c.916-.882 4.299-2.083 5.291-2.392 2.565-.799 2.962-.931 3.547.027.415.678.922 1.943.922 2.899.175 1.135-.817 1.663-6.9 3.839-.478.17-1.589.334-2.033-.256-.743-.989-1.794-3.184-.827-4.117Zm-9.438-4.189c1.068-.363 1.95.947 2.643 1.847.388.505.444.164-10.609 4.551-.328.13-.26.148-.426-1.1.211-2.594-.716-2.192 8.392-5.298Zm2.36 9.049c6.173.646 10.225 5.821 9.891 11.15-.891 14.22-18.988 14.15-21.528 2.332-1.703-7.928 4.833-14.196 11.637-13.482Zm24.795 20.723c-5.695 2.93-29.336 15.142-35.716 15.698-.572-.077-1.151-.137-1.728-.314-7.97-2.459 30.694-17.071 38.844-19.266 1.91-.514 2.825 1.71-1.4 3.882Z"></path><path id="vector_6" fill="#959595" d="M24.569 70.4959c-.984-.515-3.36 1.097-2.69 2.356.202.38.625.589 1.138.557.514.074 1.093-.291 1.155-.607.142-.716-2.019-.252-.657-1.061.244-.145.572-.292.947-.36.523-.095.549-.652.107-.885Z"></path><path id="vector_7" fill="#959595" d="M55.818 58.1669c-.577.067-.732-.579-.462-.929.284-.368.904-.713 1.225-.328.561.673-.256 1.333-.763 1.257Z"></path><path id="vector_8" fill="#959595" d="M29.329 57.6292c-5.634-.863-8.188-6.763-6.193-11.082 3.475-7.524 13.516-5.969 15.153 1.259 1.309 5.778-3.772 10.618-8.96 9.823Z"></path><path id="vector_9" fill="#959595" d="M41.778 36.8744c-.201 0-.39-.122-.467-.321l-.779-2.026c-.099-.258.03-.547.288-.646.256-.1.546.03.646.287l.779 2.026c.126.328-.118.68-.467.68Z"></path><path id="vector_10" fill="#959595" d="M43.879 36.0224c-.201 0-.39-.122-.467-.321l-.779-2.026c-.099-.258.03-.547.288-.646.255-.099.546.03.646.287l.779 2.026c.126.328-.118.68-.467.68Z"></path><path id="vector_11" fill="#959595" d="M45.979 35.1699c-.201 0-.39-.122-.467-.321l-.779-2.026c-.099-.258.03-.547.288-.646.255-.099.546.03.646.287l.779 2.026c.126.328-.118.68-.467.68Z"></path></g><path id="music note" fill="#959595" d="M97.17 26.1039c.045.137 6.593 14.397 4.791 18.18-2.41 5.06-8.691 4.82-9.527 1.384-.916-3.763 4.361-7.2929 8.047-5.5669.054.0249.123.0199.186.0269-.013-.314-3.323-9.501-3.332-9.523-3.377 1.234-10.959 3.7-13.885 4.6561-.763.2489-1.001.184-.871.5 2.282 5.541 3.281 10.187 3.525 10.93 1.049 3.188-4.146 6.7329-8.096 3.9339-3.715-2.633.186-8.607 6.025-6.409-.054-.646-4.153-10.589-4.194-10.69-.94-2.332-1.147-2.736.902-3.911 4.066-2.332 13.605-4.709 13.712-4.728 1.276-.227 2.304-.049 2.717 1.217Zm-.206 3.366c-.256-.772-.755-2.291-1.003-3.106-.09-.296-.242-.146-1.212.052-7.955 1.621-14.47 4.659-14.54 4.791-.105.198.22.336.305.536.043.101.05-.0259 1.42 2.5871.356.68.314.1099 1.616-.3811 13.173-4.972 12.523-4.01 13.414-4.479Z"></path><g id="book"><path id="vector_12" fill="#959595" d="M164.83 22.3221c.245.247.124.243 3.101-1.645 8.236-5.221 14.342-5.053 23.487-1.091.855.37 1.661.839 2.426 1.373.276.193.494.397.433.808-.078.523.352.413.35 3.193 0 .954.18 1.815.312 6.204.212 7.059-.196 6.031-.211 7.097 0 .022-.097 6.898-.561 12.166-.756 8.578-1.088 8.475-2.042 8.15-.514-.175-.639-.31-.886-.251-.013.671.048 1.164-.339 1.584-.197.214.092.81.204 3.469.139 3.276-6.928.422-7.082 1.277-.004.023-1.847 8.253-1.858 8.275-.322.659-1.008.395-1.492-.263-1.546-2.098-1.349-1.914-1.591-1.683-1.454 1.391-1.631 1.587-2.331 1.865-.437.173-.853-.067-.907-.534-.113-.994.238-1.463 1.061-8.067.116-.933.799-.121-20.424-1.575-23.902-1.638-23.94.48-23.861-4.454.006-.393-.014-.435-.426-.478-.341-.036-.595-.166-.59-.586.018-1.687 3.716-33.497 3.716-33.519.061-1.073.173-2.827.608-3.756.245-.523.494-.715 6.548-2.704 7.252-2.382 17.356.11 22.356 5.143l-.001.002Zm13.044-4.364c-6.41.426-10.624 4.341-12.571 5.078.016 9.944-4.03 35.777-4.022 36.323 1.564-.534 8.09-5.327 15.883-5.185 10.237.187 15.144 4.261 15.288 3.334 1.54-9.929 1.609-24.406 1.225-35.532-.014-.395-.148-.231-1.524-.826-5.576-2.41-8.628-3.568-14.28-3.193l.001.001Zm-31.609-.644c-5.551.913-4.896 1.151-8.993 2.417-1.156.357-.88 1.806-1.575 7.791-1.181 10.169-2.614 26.165-3.339 29.2-.151.63 3.406-1.907 7.571-2.459 7.788-1.032 13.591 2.159 20.592 5.08.263-1.907-.071-.009.622-5.504 1.337-10.607 2.222-14.109 2.989-25.831.335-5.118.37-4.981.105-5.127-2.193-1.21-7.429-6.092-17.971-5.565l-.001-.002Zm5.235 40.479c1.032.258 3.265.988 4.122 1.62.134.099-.016.342-.35.267-4.768-1.064-11.834-3.227-18.469-.857.337.972.299 1.035.718.972 4.287-.651 7.474-1.055 14.554.229 9.512 1.725 9.027 2.314 14.695.875 8.321-2.113 10.535-.604 10.553-1.212.048-1.6.065-1.66-.236-1.66-3.393 0-5.04-.296-11.704 1.984-.493.169-.949-.697 3.209-1.766 7.986-2.052 13.643-1.135 21.718.972.159-1.239.213-1.243.031-1.308-9.551-3.403-15.956-3.902-25.549.648-3.572 1.694-3.954 1.906-4.833 1.483-7.896-3.794-15.821-6.468-24.124-3.675-1.501.505-1.434.523-1.407.9.103 1.452.052 1.416.301 1.333 4.623-1.535 8.816-2.794 16.771-.803v-.002Zm31.879 1.353c-.003-.227-.044-.455-.301-.475-.386-.031-.763-.134-1.149-.177-3.791-.426-3.599-.465-3.57-.193.43 4.039-1.509 12.333-1.548 13.225.289-.101.152-.043.348-.227 2.325-2.183 1.986-2.138 3.382-.678.817.855.761 1.239.972.321 1.703-7.428 1.915-7.486 1.867-11.797l-.001.001Zm.994 1.479c.027.337.027.339.325.422 1.533.428 3.085.799 4.564 1.405.334.137.141-.236.103-1.371-.034-1.028.186-1.231-.249-1.337-1.183-.288-3.07-.655-4.824-.844.011 1.03 0 .713.081 1.725Z"></path><path id="vector_13" fill="#959595" d="M176.348 43.3217c2.83-.089 5.768-.075 8.691.617.305.072 1.127.275 1.384.536.376.381-.027.947-.716.824-12.241-2.198-15.354.939-18.662 1.474-.28.045-.55-.276-.24-.548 1.336-1.17 6.718-2.814 9.543-2.903Z"></path><path id="vector_14" fill="#959595" d="M178.547 32.7422c.088.004 6.321.004 7.355.736.552.39-.141.774-.725.749-6.603-.273-6.265-1.293-16.726 2.381-.837.294-1.149-.4-.245-.844 4.487-2.201 6.472-2.426 10.341-3.022Z"></path><path id="vector_15" fill="#959595" d="M192.057 24.8531c-.184 7.12.285 5.055-3.918 4.548-1.546-.186-1.956-.487-1.71-5.392.076-1.506.115-1.781.7-1.97 1.084-.349 2.677.045 3.2.303.462.229.897.517 1.322.81.316.218.274.539.361 1.701h.045Zm-4.966-1.638c-.025.233-.014.236.074 3.283.049 1.717-.168 1.756.664 1.813 3.359.232 3.335 1.546 3.314.18-.03-1.997-.053-2.183.038-4.111.074-1.566-4.017-1.851-4.091-1.165h.001Z"></path><path id="vector_16" fill="#959595" d="M183.703 21.6659c.579.034.869.559.518.765-1.522.894-5.404-.61-11.157 2.118-.803.381-2.701 1.248-4.169 1.806-.361.137-.566-.254-.298-.46 3.593-2.767 8.956-4.587 15.106-4.229Z"></path><path id="vector_17" fill="#959595" d="M176.139 49.782c-7.912.605-9.866 2.554-10.1 1.878-.667-1.93 11.156-3.333 13.172-3.022.642.099.659.148.366.711-.126.242-.056.175-3.438.433Z"></path><path id="vector_18" fill="#959595" d="M180.328 26.6519c.368.404-.332.712-.967.832-1.629.31-2.919.244-5.581 1.2-1.878.675-3.414 1.591-4.721 2.053-.487.172-.623-.376-.368-.579 4.59-3.639 11.049-4.153 11.637-3.507v.001Z"></path><path id="vector_19" fill="#959595" d="M176.408 39.0792c-6.412.632-8.051 2.043-8.955 2.26-.447.107-.691-.348-.411-.631 1.17-1.18 10.003-3.568 11.282-2.466.39.337-.233.663-.743.74-.386.059-.781.058-1.174.096l.001.001Z"></path><path id="vector_20" fill="#959595" d="M142.602 43.1384c-3.599.274-4.901.749-4.948.07-.058-.846 4.566-1.295 5.316-1.328 6.177-.277 9.12.541 14.657 2.116.482.137.882.696.503 1.023-1.084.936-5.125-2.673-15.528-1.881Z"></path><path id="vector_21" fill="#959595" d="M151.162 32.2304c4.768.845 5.435.874 6.557 1.694.119.087.09.194-.022.267-.485.315-.588.15-3.864-.384-8.683-1.413-10.059-.319-14.52.236-.758.094-.646-.756-.307-.868 3.414-1.133 8.328-1.623 12.156-.945Z"></path><path id="vector_22" fill="#959595" d="M153.543 48.4783c.314.13.419.744-.065.844-.716.147-.785-.036-3.747-.615-6.658-1.301-12.333 1.378-12.891.386-.694-1.232 10.21-3.297 16.703-.615Z"></path><path id="vector_23" fill="#959595" d="M153.408 38.5831c-5.771-.644-3.66-.969-9.274-.626-1.73.106-5.466 1.035-5.984.79-.431-.204-.137-.662.263-.801.792-.276 1.645-.471 2.466-.633 8.643-1.699 14.512.616 13.136 1.104-.191.068-.394.108-.607.166Z"></path><path id="vector_24" fill="#959595" d="M154.997 23.1608c-1.284.428-3.853-1.322-8.646-.904-2.217.193-3.381.736-6.166 1.575-.725.218-1.028-.15-.815-.478.451-.691 4.441-1.652 4.898-1.726 7.355-1.186 12.093 1.078 10.729 1.533Z"></path><path id="vector_25" fill="#959595" d="M146.457 25.7367c2.679-.013 2.977-.072 5.138.729.455.169.884.687.404.74-1.562.175-2.908-.582-5.913-.413-4.1.23-6.729 1.68-7.144.983-.132-.222.422-.611.662-.707 2.46-.986 5.217-1.051 6.853-1.332Z"></path></g><path id="brain" fill="#959595" d="M122.093 101.108c.999-1.7574 2.008-3.2634 2.118-6.2454.085-2.295-.862-5.365-2.978-7.252-2.082-1.857-4.376-2.028-5.172-2.221-1.728-.419-2.76.146-3.57-.128-1.028-.348-1.604-.824-1.988-1.367-1.524-2.158-3.346-3.927-6.18-3.898-1.663.018-2.702.698-4.131 1.627-.644.417-.868.027-2.405-1.295-1.672-1.436-4.075-2.138-6.584-1.521-4.38 1.08-4.782 4.77-6.873 4.003-4.109-1.506-9.234.678-10.551 4.777-.123.382-.352.287-1.248.287l.002-.025c-1.194.11-2.773.142-4.133 1.387-2.421 2.217-4.111 7.212-1.649 10.174 2.816 3.3884 3.146 2.2124 1.692 5.3584-.859 1.854-.675 3.233-.328 4.441 4.138 14.39 20.823 2.746 23.262 25.441.406 3.799 1.115 17.969 1.115 17.993.019.784.433 1.353 1.182 1.582.693.213 1.4.357 2.134.148 1.299-.368 1.432-1.162 1.497-2.307.222-3.916-1.977-25.732 6.267-26.639 6.133-.675 10.468.213 12.353-4.526.716-1.804-.02-2.358.649-2.729.53-.294 7.429-1.18 8.453-7.916.866-5.702-3.705-7.797-2.935-9.15l.001.001Zm-16.801-6.1474c.724.138 1.864-.733 2.153-1.459.368-.923-.752-1.968.944-2.341 1.481-.328 3.034-1.636 2.469-3.08-.326-.832-.387-1.333-.185-1.531.555-.54 1.656 1.364 1.573 2.359-.181 2.086-2.231 3.368-3.579 3.456-.064.004-.083.015-.083.015-.026.1.138.607 0 1.466-.142.894-1.011 1.464-1.708 1.924-.434.286-.876.365-1.431.273-.181-.031-.315-.138-.531-.311-.377-.3-.155-.87.377-.772l.001.001Zm-7.974-2.477c.747-.28 1.648-1.182 1.243-1.877-.506-.864-.929-1.585-.215-2.277 1.422-1.377 1.642-1.656 1.094-3.445-.273-.897.303-1.651.626-1.128 2.297 3.739-1.143 5.119-.882 5.542.568.919 1.019 2.005.054 3.088-1.815 2.037-3.163.564-1.92.097ZM80.661 110.465c-.474 1.134-2.355 1.979-3.379 1.979-2.264 0-4.788-2.885-4.708-5.193.047-1.379.77-2.473 1.922-3.79.549-.626.082-.748-.316-2.465-.5-2.1504 1.182-3.8584 2.535-4.3844 1.547-.602 2.198.407 1.829.917-.335.459-.612-.181-1.613.456-2.102 1.338-1.678 2.2724-.832 4.5154.584 1.547-.889 1.574-1.793 3.465-.444.929-.419 1.766.077 2.558.489.777 1.108 1.453 1.842 2.006.817.617 1.214.366 2.975-.206.903-.292 1.275-.412 1.446-.228.118.128.041.309.016.369l-.001.001Zm1.669-17.4884c-.216-.237-.296-.506-.366-.63-.679.494-1.096 1.129-1.898 1.459-1.201.493-2.54.407-3.583-.228-2.048-1.247-2.057-4.035-1.16-4.184.586-.091.522.823.726 1.504.456 1.536 2.075 2.24 3.561 1.639.576-.236 2.565-2.693 3.484-.917.911 1.761 3.819 1.869 4.856-.132.682-1.32.842-1.366 2.818-.832.866.233 1.77-.267 2.173-.857.372-.548.518-1.201.673-1.894.145-.649.294-1.32.64-1.987.037-.071.123-.1.194-.068.849.375.217 3.127.21 3.154-.695 2.588-2.201 2.852-3.299 3.044-.093.016-.184.032-.271.049-.099.035-.976-.045-1.649-.324-.057-.023-.122-.05-.142-.05-.009.009-.472.821-.478.832-1.275 2.144-4.319 2.796-6.487.422h-.002Zm9.185 9.1544c-.061.685-.61 1.014-1.242.729-.038-.017-.089-.042-.15-.073-.498-.247-1.82-.901-3.228-.507-1.335.375-2.008 1.712-2.192 2.839-.18 1.094.512 1.835 1.244 2.619 1.416 1.516 1.671 2.233.659 3.918-.375.624-.728 1.213-.706 1.932.019.64.426 1.286 1.17 1.286.201 0 .37.047.534.09.233.061.391.128.385.346-.029.986-3.132 1.163-3.301-1.375-.104-1.597.502-2.048 1.086-3.462.654-1.59-3.787-2.801-1.974-6.981 1.029-2.376 2.568-2.688 4.09-2.66 1.106-.13 2.033.332 2.192.351.37-2.0574 2.155-4.5564 4.208-4.5964 2.822-.035 3.32 2.665 3.669 3.075.248-.157 1.068-.882 2.107-1.108 1.232-.266 2.407.151 3.395 1.209 1.123 1.2074 1.084 3.3564.213 3.4054-1.05.066-.208-2.47-2.896-3.2124-.339-.096-1.663.3544-2.304 1.2474-.512.712-1.255.716-1.558-.017-.071-.169-.467-1.7564-1.061-2.4384-.682-.782-1.67-.996-2.403-.522-.253.162-.479.402-.67.614-1.325 1.4634-1.173 2.2184-1.27 3.2924l.003-.001Zm15.029 17.168c-.42 1.567-3.347 2.99-5.243 1.86-.808-.48-1.115.352-2.657.301-1.346-.047-2.16-1.31-2.474-2.476-.33-1.226-.362-.454-2.054-.637-1.498-.161-2.644-2.16-1.637-4.188.367-.739 1.133-.637 1.241-.277.195.658-.485.631-.411 1.924.033.598.423 1.118.927 1.235 1.15.268 2.595-.853 3.211 1.305.589 2.053 1.33 1.828 2.883 1.315 1.489-.491 1.519.771 3.162.4 1.645-.372 2.652-1.358 2.989-1.087.081.066.103.174.063.323v.002Zm8.374-.73c-.053.228-.328.064-.531-.053-.352-.201-.938-.536-2.594-.674-.788.123-1.854.367-2.568-.517-.7-.869-.04-1.752.657-.886.183.229.45.424 1.134.312 1.394-.228 2.992.329 3.613.99.251.268.351.555.289.828Zm3.174-12.305c.038.688-.124 1.375-.506 2.163-.307.627-.85 1.03-1.426 1.42-2.37 1.605-3.48.096-3.608.485-.563 1.738-2.255 3.18-4.238 3.025-2.115-.162-2.718-.986-3.87-2.5-.439.113-2.18 3.498-5.851 1.979-2.755-1.14-2.401-4.195-3.797-4.06-.327.032-.457-.016-.539-.216-.353-.852 1.605-1.489 2.503-.021 1.048 1.706 1.239 2.806 3.471 3.147.185.028.409-.038.625-.102.874-.255 1.378-.626 2.119-1.302 3.097-2.818 2.158 1.906 6.02 1.526 1.084-.107 2.038-1.323 2.299-2.389.154-.626.342-.957.607-1.071.76-.326 1.597 1.289 3.113.463 1.662-.907 1.511-1.786 1.857-2.488.197-.399.556-1.259.911-1.077.452.233.277.751.31 1.014v.004Zm2.039-4.834c-.092.256-.613.382-.873.345-1.771-.263-1.656-1.499-1.955-1.334-1.252.687-2.715 1.258-4.081.291-.761-.538-.822-1.2854-.946-1.4674-.861.544-1.519 1.2804-2.293 1.1914-.988.074-1.664-1.0634-1.08-1.5644.433-.375.593.72 1.408.221 2.222-1.345 2.399-1.879 3.361-.059.303.574.775.802 1.441.7.763-.117 1.59-.636 2.034-.849.71-.342 1.25-.09 1.484.602.353 1.0444 1.091.8314 1.449 1.5104.076.146.095.292.051.413Z"></path><path id="pencil" fill="#959595" d="M12.419 172.439c-.128-1.979 1.321-3.558 1.046-4.277-.015-.04.96-7.293 3.108-10.221 6.525-8.899 10.345-12.895 17.897-20.859.294-.31-.062-.83.058-1.779.102-.801 1.052-2.285 2.515-2.554.233-.043.252-.139.258-.328.037-1.147.676-2.006 1.759-2.392 1.34-.478 1.492.085 1.728-.473.774-1.836 1.845-3.59 3.583-4.562 2.955-1.651 8.065 2.558 10.138 5.381 2.992 4.074-3.442 7.445-3.202 8.139.492 1.425-.834 2.864-2.006 3.292-.671.245.026.917-1.124 2.464-1.203 1.617-2.592 1.348-2.883 1.806-5.171 8.123-14.289 17.197-18.586 21.566-1.474 1.499-6.875 3.177-8.883 4.402-2.468 1.506-2.993 1.991-4.12 2.118-.623.07-1.286-.38-1.286-1.723Zm14.406-6.103c.022-.016 7.336-7.675 17.825-20.713.298-.371-.054-.35-.249-.967-.303-.958-.952-1.673-1.629-2.37-.181-.187-.224-.177-.393.034-6.521 8.147-18.424 21.549-17.996 21.608.786.108 1.126.274 1.634.655.924.694.745 1.394.808 1.753Zm11.399-27.579c-.541-.601-1.784-1.043-2.594-1.194-.287-.054-.375.047-.978.736-2.075 2.371-16.531 18.281-17.462 20.527.128.016 2.115-.538 2.832 1.133.22.512-.175-.408 9.166-11.06 1.791-2.042 8.551-9.348 9.036-10.142Zm-15.111 26.397c-.489.131-.764-.4-.672-.896.452-2.438-.443-2.777-2.723-2.12-1.497.431.43-2.035-1.756-2.281-.6-.068-1.292-.282-1.604.552-.381 1.019-1.61 5.614-2.029 8.065-.089.523.609-.201 2.679 1.667.637.575.391.979.945.705 3.723-1.841 6.08-2.57 7.108-3.278 1.127-.778.104-2.961-1.947-2.413l-.001-.001Zm29.404-35.179c-2.378-2.132-2.486-2.342-4.564-3.55-3.442-2.001-4.983 1.618-6.041 3.44-.151.26-.159.253.11.406 6.255 3.547 8.426 7.227 8.812 6.837 2.806-2.835 4.654-4.47 1.683-7.133Zm-12.467.931c-1.034.081-1.222.677-1.568 1.649-.227.637.336-.029 3.281 2.212 6.857 5.22 6.364 6.284 6.826 6.074 3.483-1.58.626-3.597-2.28-6.11-1.638-1.416-3.579-3.11-6.258-3.826l-.001.001Zm7.252 10.759c-.02-.022-3.34-4.06-7.981-6.945-1.746-1.085-2.37-1.062-3.027-.175-.263.354-.507.469-.548 1.12-.045.725-.2.738.128.79 3.126.497 6.117 3.503 8.352 5.744.696.698.953 1.185 1.266 2.186.199.637 2.762-1.664 1.811-2.72h-.001Z"></path><g id="painting gear"><path id="vector_26" fill="#959595" d="M165.281 169.241c.079 1.05-.475.841-.476 2.444-.002 6.541-6.251 5.767-6.485 1.562-.018-.323-.222-.285-.545-.269-1.515.075-2.163-1.584-1.766-2.919.487-1.64 1.768-.886 1.741-2.002-.023-.949.344-1.701 1.227-2.053.465-.185.7.168.942-.144.722-.929 1.158-1.559 2.28-1.384.48.074 1.023.693.947 1.586-.128 1.494 2.134.559 2.134 3.18l.001-.001Z"></path><path id="vector_27" fill="#959595" d="M168.35 166.598c-1.209-.761-1.181-2.417-.312-3.532.54-.694.781-.35.835-.985.078-.924.689-1.942 1.607-1.874.841.062.689-.891 1.907-1.277.765-.242 1.817.108 2.163.745.253.467.604.841.965 1.221.99 1.039.061 1.544.406 1.977.624.783.884 1.609.561 2.542-.771 2.226-.705 3.191-2.354 3.779-3.996 1.425-4.791-1.975-5.778-2.596Z"></path><path id="vector_28" fill="#959595" d="M184.672 155.601c-.5 1.048-1.178 2.235-2.354 2.417-.987.153-1.971-.369-2.708-1.043-.251-.229-.303-.339-.604-.292-3.716.584-3.355-3.131-2.053-4.512.112-.119.32-.186.37-.319.05-.132-.063-.316-.072-.48-.091-1.696 1.568-2.505 2.127-2.318.224.075.363.004.485-.155.74-.972 2.8-.754 3.474.341.576.936 1.537.231 2.331 2.053.794 1.822-.413 3.085-.996 4.308Z"></path><path id="vector_29" fill="#959595" d="M190.069 139.591c.013 1.144-.489 2.762-1.45 3.386-1.313.853-1.308 1.564-2.486 1.892-1.55.431-3.21-.767-3.247-2.372-.007-.303-.007-.315-.289-.332-1.721-.106-2.592-2.477-1.005-4.387.386-.464.48-.186.772-.772.321-.644.476-.999 2.717-1.427.682-.13 2.326.472 2.892 1.64.22.453 2.302.691 2.096 2.372Z"></path><path id="vector_30" fill="#959595" d="M181.28 125.378c-1.946-.668-1.838.209-3.707.85-.713.245-1.383.557-1.625 1.378-.04.137-.168.245-.238.375-.675 1.261.199 1.257.213 2.421.026 2.19 3.093 2.779 4.867 1.566.788-.538 1.808-.256 2.464-1.167.843-1.172.571-2.175-.204-3.213-.645-.864-.395-1.738-1.77-2.21Z"></path><path id="vector_31" fill="#959595" d="M161.098 117.506c.381.2 6.784 2.127 5.946 1.467-1.112-.876-4.236-1.91-5.695-2.168-.523-.031-.716.457-.251.701Z"></path><g id="group"><path id="vector_32" fill="#959595" d="M179.305 121.166c-2.096-.115-.866-.774-10.212.175-.348.036-.184-.031.691-2.34.292-.775.229-1.41-.266-1.889.85-1.855 4.482-9.793 4.605-10.134.223-.622.07-1.402-.571-1.633-.379-.135-3.979-1.63-4.509-1.682-.333-.03-.738.134-1.069.314-.643-1.254-.85-1.201-2.237-1.661-.809-.268-1.655-.077-1.878.74-.134.493-2.657 9.182-3.129 10.807-.815.097-1.22.802-1.635 2.044-1.681 5.024-2.818 8.271-1.901 9.258.574.617-10.907 4.952-13.773 16.607-.471 1.923-.709 3.242-.119 5.601.774 3.097 2.226 4.735 4.284 6.864.498.516-1.782 6.056-3.79 12.685-1.055 3.487-1.625 4.696-.648 5.551.945.83 2.495.758 3.491-1.371 1.151-2.459 2.717-6.837 3.882-9.75.902-2.255.743-2.073.96-1.492 2.439 6.496-1.043 11.83.018 16.387.996 4.281 4.613 6.731 8.049 7.041 4.975.449 10.513-3.298 14.345-6.503 8.805-7.362 9.519-10.414 12.795-14.471 3.83-4.741 7.499-14.704 7.521-22.58.034-11.217-7.447-18.158-14.904-18.568Zm-14.424-17.934c.083-.044.286-.053.54.031.495.164.924.298 1.184.416.115.092.385.547.614 1.028-.559 1.345-2.03 5.052-2.253 6.591-.049.342.408.5.581.217 1.225-2.012 1.849-4.289 2.634-6.497.304-.195.651-.361.757-.362.488.084 4.067 1.57 4.251 1.611.156.208.062.293-4.534 10.332-1.338-.544-5.8-2.233-6.921-2.607 3.126-10.764 3.047-10.707 3.147-10.76Zm-4.774 12.49c.516-1.714 1.499-.608 7.405 1.425.397.137.776.341 1.147.548.305.17.355.354.238.709-.301.929-3.319 7.8-3.651 8.302-.53.806-1.007-.444-4.649-1.402-2.412-.635-2.946-.413-2.951-1.346.592-2.403.645-2.203 2.462-8.235l-.001-.001Zm.031 22.438c2.133 3.873.523 8.847-1.778 10.759-.801.666-1.936.952-3.148.84.809-2.167 2.903-7.003 4.927-11.6l-.001.001Zm28.339 19.361c-2.154 3.954-2.237 3.42-3.662 5.32-2.383 3.18-2.8 4.475-5.518 7.151-5.91 5.818-15.887 15.24-22.953 10.874-6.097-3.768-3.218-9.734-2.818-14.276.696-7.934-2.919-10.71-6.765-15.094-2.051-2.338-3.209-5.904-2.188-9.534 2.064-7.344 6.608-11.132 12.184-14.879.349-.246.138-.105-3.276 9.615-3.545 1.775-5.106 4.134-4.901 7.384.372 5.893 7.19 8.287 10.417 5.605 3.127-2.598 4.385-8.497 1.631-12.642 1.713-3.878 3.294-7.408 3.899-8.77.218-.489.891-.034 1.349-.9.651-1.234 1.6-3.016 2.246-4.422.218-.476.341-.373 3.025-.768 4.51-.662 11.311-.135 15.323 2.917 5.813 4.42 7.212 12.474 6.233 18.112-.31 1.792-.537 7.531-4.227 14.305l.001.002Zm-35.488-19.416c-.913 2.623-1.656 4.823-2.803 8.235-.345-.707-.555-1.49-.607-2.322-.16-2.539.902-4.408 3.41-5.913Z"></path><path id="vector_33" fill="#959595" d="M166.606 113.828c.109.085.269.066.351-.045.853-1.149 1.563-2.39 1.833-3.813-.397-1.907-2.658 3.508-2.184 3.858Z"></path><path id="vector_34" fill="#959595" d="M170.459 109.373c.313-.477 1.22-1.823.768-2.257-.852-.563-1.2 1.478-1.323 2.027-.063.308.377.497.555.23Z"></path></g></g><g id="stars"><path id="vector_35" fill="#959595" d="M152.017 92.8148c.099-.469-.349-.172-2.006.503-.509.207-1.485.785-1.479-.175.004-.563.273-.775 2.403-1.768.52-.243.527-.213.168-.657-2.004-2.48-2.908-2.758-2.493-3.368.718-1.055 3.09 1.822 3.842 2.69.2.231.254-.26.352-.646 1.427-5.619 1.53-6.869 2.363-6.514.552.235.397.994.182 1.941-1.244 5.475-1.348 5.381-.954 5.221 5.562-2.249 3.103 0 1.768.698-2.467 1.291-2.668.736-1.447 2.105s1.414 1.402 1.369 1.775c-.078.646-.653.435-1.151.164-1.16-.631-1.515-1.654-1.656-1.113-1.014 3.88-.888 3.503-1.2 4.214-.195.444-.813.429-.848-.193-.066-1.153.461-3.334.788-4.876l-.001-.001Z"></path><path id="vector_36" fill="#959595" d="M59.08 158.15c.069 2.892-4.239 2.854-4.239.123 0-2.975 4.171-2.939 4.239-.123Zm-3.397.09c-.006 1.894 2.498 1.463 2.468.173-.039-1.701-2.463-1.62-2.468-.173Z"></path><path id="vector_37" fill="#959595" d="M128.288 154.932c-1.871-.108-2.879-2.695-.626-3.83.9-.453 1.566.096 2.316.772 1.194 1.077.038 3.043-1.69 3.058Zm-.045-1.095c.664-.047 1.423-.637 1.041-1.18-.72-1.025-1.682-.66-1.869.049-.092.35.18 1.176.828 1.131Z"></path><path id="vector_38" fill="#959595" d="M31.045 114.758c.014.39-.463.619-.664.254-.194-.353-.201-.493-1.03-4.03-.083-.355.079-.401-1.878 1.174-.494.397-1.245.11-.985-.491.47-1.09 2.291-1.95 1.829-2.28-1.4-.999-2.435-1.317-2.63-1.456-.577-.412-.242-1.232.429-1.088 1.086.233 1.373.464 2.361.947.664.325-.64-2.764-.702-4.64-.014-.406.56-.652.806-.298 1.038 1.499 1.362 5.403 1.739 5.105 1.211-.957 1.394-1.092 2.726-1.939.173-.11.447.011.269.263-1.248 1.765-.614 1.049-2.34 2.908-.323.348-.229.222 1.849 1.901.269.218.565.511.399.767-.452.699-1.959-.503-2.471-.734-.159.503.183.46.294 3.64l-.001-.003Z"></path></g></g></svg>