<svg xmlns="http://www.w3.org/2000/svg" fill="none" viewBox="0 0 200 200"><g id="inventing--science-technology-inventing"><path id="Subtract" fill="#959595" fill-rule="evenodd" d="M179.502 73.165c3.48 3.364 6.264 7.424 8.352 11.832h.001c5.682 13.14 1.482 28.992-4.988 41.762-.124.308-.41.322-.617.18l-.256.496c-1.381-.618-2.8-1.246-4.196-1.863l-.001 0-.002-.001-.006-.003c-2.923-1.293-5.746-2.541-7.915-3.565h-.001c-.938-.443-1.972-.812-3.132-.928a4.16 4.16 0 0 0-.577.04l-4.295-2.245v.001c-.774-.516-1.488-.416-2.32 0-.363.19-.716.394-1.06.611l-2.885-2.004v.001c-.696-.464-1.276-1.16-1.276-2.088-1.392-5.104-4.64-9.628-9.164-12.529a25.866 25.866 0 0 0-5.296-2.978c.263-15.305-.076-30.71-2.128-45.512-24.013-3.364-48.954-4.524-72.735.58-1.721 12.799-2.574 29.315-1.747 46.123a26.046 26.046 0 0 0-3.01 1.903c-4.524 2.9-7.772 7.424-9.164 12.528 0 .464-.232.928-.464 1.276l-.082.082c-.065.066-.118.12-.174.172-.261.247-.561.454-2.281 1.644l-.005.003-.005.004-1.205.834a15.592 15.592 0 0 0-1.12-.649v-.001c-.66-.439-1.462-.494-2.204 0l-4.292 2.243a4.212 4.212 0 0 0-.58-.04c-1.16.116-2.194.485-3.132.928-1.992.94-5.018 2.604-8.277 4.44.986-6.752 1.693-12.151-.076-20.215-1.573-7.171-5.099-14.154-9.628-19.489-1.596-1.88-3.172-3.8-4.524-5.8-5.262-7.784-4.292-18.097-.232-26.217 6.112-12.224 19.562-22.002 31.321-25.405 3.98-1.15 7.608-1.523 11.319-1.905 5.66-.584 11.507-1.186 19.074-4.591 5.726-2.704 8.717-4.863 11.663-6.99 1.772-1.28 3.528-2.547 5.854-3.915 5.219-2.936 13.528-4.833 19.257-5.568 9.396-1.392 19.14-2.204 28.421.116 13.216 3.348 24.425 13.339 25.173 26.797.108 2.476-.259 4.901-.625 7.323-.423 2.799-.846 5.593-.535 8.453.883 8.535 6.993 14.913 12.716 20.888a204.28 204.28 0 0 1 3.061 3.241Zm-23.317 65.194c1.624 1.887 5.332 6.046 9.316 10.35-6.028 4.778-13.168 7.869-21.747 8.528.949-.813 1.405-1.74 1.178-3.1v-.001c-1.115-7.244-3.78-15.284-7.073-21.871-7.685-2.542-17.385-4.723-25.247-6.164 9.43-.281 17.956-.249 26.404.31l.043-1.089.147-3.763 0 .001c.629.748 1.254 1.492 1.898 2.182.928 1.044 2.088 1.856 3.248 2.552.647.388 1.186.416 1.758.444.453.023.926.047 1.49.252.055.027.116.055.181.084.209.093.454.203.631.38 1.038.778 2.112 1.593 3.161 2.423-.067.426-.115.856-.144 1.29 0 .805.034 1.57.812 2.088a37.89 37.89 0 0 0 3.246 3.123c-.001 1.013.153 1.224.466 1.652.069.095.147.201.232.329ZM32.941 156.277a18.113 18.113 0 0 0 3.526 2.152c5.529 2.473 11.42 1.595 16.797.771-.16-.567-.063-1.207.372-1.932 2.901-6.612 6.497-12.76 10.905-18.445.189-.251.345-.469.483-.661l.002-.002 0-.001 0-.001.001 0c.847-1.178 1.002-1.394 3.593-2.48 7.058-2.994 15.65-6.157 23.22-8.633-3.578.198-7.31.414-11.226.64l-.003 0-.01.001-.003 0-.01 0-.009.001c-4.51.26-9.262.535-14.298.812-.346-1.909-.663-3.84-.95-5.788-.338.393-.678.778-1.023 1.148-.928 1.044-2.088 1.856-3.248 2.552-.647.388-1.186.416-1.758.444-.453.023-.926.047-1.49.252a5.694 5.694 0 0 1-.18.084c-.21.093-.455.203-.632.38a62.256 62.256 0 0 0-3.252 2.466c.055.373.095.751.12 1.131 0 .86-.04 1.407-.696 2.088-1.011 1.049-2.046 2.072-3.131 3.013l0 .001c.022 1.206-.126 1.409-.464 1.874l0 .001 0 .001c-.07.095-.147.2-.232.328-2.6 3.02-10.54 11.865-16.404 17.803Zm106.826-51.559-.002.054c.139.096.276.194.412.294a22.799 22.799 0 0 0-.41-.348ZM78.229 34.303c.511.511 7.165 10.471 7.492 11.115v-.001c.879 1.731-.468 1.721-1.333.946-1.078-.966-7.319-9.277-8.015-11.016-.348-1.16 1.044-1.74 1.856-1.044Zm25.057 10.673c.619-4.541.918-13.683.58-15.545-.232-.928-1.756-.93-1.856 0-.027.247.313 13.763.464 15.429-.116.58.696.696.812.116Zm24.477-6.381c-.722 1.445-4.457 6.568-6.707 8.697-.758.717-1.265.045-.79-.717 1.103-1.768 5.473-7.894 6.221-8.792.464-.348 1.508 0 1.276.812Z" clip-rule="evenodd"></path><g id="box"><path id="vector" fill="#959595" d="M112.334 183.949c-1.717 1.373-2.374 1.312-4.06 2.436-.239.239-.122.615.545.405 1.072-.338 2.732-1.147 3.979-2.145.381-.19.165-1.011-.464-.696Z"></path><path id="vector_2" fill="#959595" d="M112.264 186.781c-3.021 2.015-3.463 2.014-4.191 2.315-.133.055-.078.802.527.703 1.816-.295 3.412-1.615 4.044-2.037 1.765-1.177.725-2.087-.381-.982l.001.001Z"></path><path id="vector_3" fill="#959595" d="M105.782 128.645c-.116 7.659-.174 14.24.638 21.78 0 .464 1.226.385 1.11-.195-.696-7.656-.556-13.967-.614-21.624-.007-.98-1.117-1.098-1.134.039Z"></path><path id="Subtract_2" fill="#959595" fill-rule="evenodd" d="M90.453 127.123c-8.898 3.07-21.734 8.077-24.476 9.264-.586.253-.736.474-.91.73l-.102.144c-4.781 5.839-8.312 12.5-11.561 19.312-.558 1.171-1.16 2.436-.232 3.596.928.928 1.972 1.624 3.248 2.088 0 0 7.061 3.588 8.448 4.276.429 3.318.918 5.402 1.293 7.002.085.361.164.698.235 1.019.116 1.16.812 2.204 1.624 2.9a35.046 35.046 0 0 0 4.176 2.088l3.37 1.629c10.732 5.192 17.108 8.277 29.923 13.8.322.107.545-.083.668-.388 9.595-4.402 18.454-10.151 26.709-16.78.355-.285.713-.57 1.073-.856 1.603-1.274 3.235-2.571 4.727-4.017 1.553-1.504 1.62-3.68 1.685-5.76.013-.446.027-.887.055-1.316l.102-1.493c.094-1.369.19-2.742.246-4.122a95.724 95.724 0 0 0 2.668-1.925c1.044-.58 1.856-1.508 2.204-2.668.116-1.276 0-2.668-.348-3.944l.002-.002c-1.229-6.48-3.175-12.929-6.374-18.807-.513-.944-.856-1.261-1.456-1.431-5.569-1.581-15.295-3.862-23.448-5.4-1.559.042-3.142.092-4.753.151l.417.082c9.809 1.635 18.074 3.342 27.62 6.13a161.352 161.352 0 0 1-25.764 15.331c-1.744.834-3.882 1.555-5.931 2.246-.918.309-1.818.613-2.657.918-.509-.385-10.5-3.934-17.55-6.438l-2.863-1.018a292.64 292.64 0 0 0-3.295-1.144c-4.343-1.489-8.773-3.009-12.816-5.249 10.237-4.156 14.441-5.609 19.066-7.208a391.253 391.253 0 0 0 7.137-2.524h.001c.376-.137.752-.27 1.13-.398-1.082.059-2.18.119-3.29.182ZM53.752 158.08c-.464 1.74.939 2.413 2.204 3.016a674.28 674.28 0 0 1 10.492 5.135c5.803 2.887 10.034 4.992 14.449 6.582.511.184 1.025.391 1.535.596.867.349 1.721.693 2.525.912.294.08.607.185.93.293 1.076.362 2.264.76 3.246.403 1.013-.369 1.515-1.396 1.969-2.326.117-.241.232-.475.351-.69.943-2.044 2.827-5.447 4.954-9.291 1.925-3.478 4.049-7.317 5.856-10.833-.445-.252-9.12-3.445-22.99-8.297-.763-.267-1.533-.529-2.305-.792-3.873-1.318-7.81-2.658-11.308-4.75-3.895 4.957-7.361 10.264-10.052 15.982-.696 1.276-1.392 2.668-1.856 4.06Zm16.657 19.523c.257.105.509.207.744.314l.023.011c11.21 5.434 22.42 10.869 33.845 15.656-1.471-11.268-2.411-25.854-2.19-40.456a728.938 728.938 0 0 1-4.764 8.778c-1.798 3.278-3.597 6.556-5.337 9.863-.58 1.392-1.276 2.552-2.204 3.596-.928.812-2.32 1.044-3.48.696-6.729-2.07-15.032-6.004-21.302-9.097.306 1.898 1.106 6.73 1.813 8.517.453 1.144 1.711 1.657 2.852 2.122Zm68.769-11.006c.035-.963.074-2.071.186-3.412.046-.688.085-1.378.119-2.069a349.137 349.137 0 0 1-3.133 2.106l-.118.079c-8.968 5.978-19.085 10.31-23.317 11.368-1.044.232-2.088-.464-2.32-1.508-.072-.216-.221-.791-.44-1.631-.976-3.757-3.329-12.816-6.285-18.742.023.29.019 1.048.012 2.228-.032 5.415-.117 19.718 2.187 38.424 11.121-4.912 20.446-11.385 29.815-19.583a9.735 9.735 0 0 0 2.668-2.668c.512-1.408.559-2.728.626-4.592Zm-2.366-5.036c2.32-1.508 4.557-2.976 6.612-4.756v-.001c1.07-.927.963-2.08.847-3.325a42.796 42.796 0 0 1-.035-.387c-.299-3.595-2.621-12.072-6.41-19.67-2.904 2.255-12.235 8.711-20.163 12.873-3.944 2.179-8.559 4.008-12.976 5.449 3.104 4.981 6.368 18.406 6.832 20.315l.056.226c.331.935.644 1.456 1.572 1.224.696-.116 1.276-.348 1.856-.58 7.902-2.872 15.763-7.182 21.809-11.368Z" clip-rule="evenodd"></path></g><g id="idea"><path id="Subtract_3" fill="#959595" fill-rule="evenodd" d="M52.591 110.52c2.349-4.293 6.224-7.738 10.64-10.018l.046.948c-5.037 2.748-9.11 6.814-11.266 12.202-.136.373-.232.775-.328 1.181-.235.984-.475 1.99-1.296 2.647a44.644 44.644 0 0 1-3.191 2.256c-.192-.13-.388-.255-.587-.376 1.479-1.1 1.877-1.371 2.184-1.581.223-.152.398-.271.898-.647.464-.348.812-.928.928-1.508.464-1.74 1.044-3.48 1.972-5.104Zm1.236 20.16a58.393 58.393 0 0 1 2.013-1.599 7.62 7.62 0 0 1 1.972-1.392c.464-.155.928-.206 1.392-.258.232-.026.464-.051.696-.09 1.392-.348 2.552-1.044 3.596-2.088a57.072 57.072 0 0 0 1.918-1.981 140.37 140.37 0 0 1-.17-1.159c-2.294 2.561-3.87 4.3-6.62 4.3a7.925 7.925 0 0 0-3.712 2.088c-.43.322-.847.644-1.258.969.074.399.132.803.173 1.21Z" clip-rule="evenodd"></path><path id="Subtract_4" fill="#959595" fill-rule="evenodd" d="M146.414 126.929c-2.917 0-5.251-2.552-7.225-4.941l.047-1.203c.317.36.597.689.862.998 1.063 1.249 1.866 2.191 3.789 3.584.469.34 1.16.58 1.856.696 2.249 0 3.729 1.272 5.94 3.199-.06.301-.112.604-.153.91a49.37 49.37 0 0 0-2.68-2.083c-.696-.58-1.508-1.044-2.436-1.16Zm12.455-7.679c-.494-.372-1.283-.966-2.594-1.949v-.001c-.464-.232-.928-.696-1.276-1.16a9.216 9.216 0 0 1-.696-2.552c-.648-2.265-3.293-6.786-7.192-9.976-2.004-1.67-4.546-3.219-7.232-4.376l-.012.705c6.322 2.771 11.936 8.126 13.765 14.522.116.812.464 1.624.928 2.32.696.58 1.392 1.16 2.204 1.624.546.409 1.091.778 1.637 1.131.154-.099.31-.194.468-.288Zm-18.81-14.183a25.076 25.076 0 0 0-.296-.195l.027-1.111c.247.198.492.402.733.61.464.348 0 .928-.464.696Z" clip-rule="evenodd"></path><path id="vector_4" fill="#959595" d="M114.075 88.941c-.094-.931-.696-1.856-1.508-2.32-.928-.348-1.856-.348-2.784-.116-3.886.845-11.291.726-14.501.114-.928-.348-1.972-.464-3.016-.348-2.752.788-2.808 4.255-.464 5.336.116 0 .116.116.232.116 1.326.497 3.003-.641 3.596 2.32.261.652 2.552 7.86 2.885 8.727.133.347.916-.065.874-.366-.224-1.589-1.896-5.372-2.367-7.084-.321-1.168-.696-2.32-1.276-3.48-.58-.812-1.508-1.276-2.552-1.16-1.16 0-2.32-.812-1.972-2.088.464-1.508 1.972-1.276 3.248-1.044 3.748.977 11.449.979 15.197.001 1.16-.232 2.784-.464 3.248 1.044.348 1.276-.812 2.088-1.972 2.088-.928-.116-1.856.348-2.436 1.044-1.319 2.639-2.677 8.851-3.385 10.534-.302.717.778.61.91.262.877-2.317 1.941-6.677 2.939-9.172.116-.58.464-1.044.928-1.276.58-.116 1.044-.116 1.624-.116 1.508-.116 2.704-1.512 2.552-3.016Z"></path><path id="vector_5" fill="#959595" d="M54.1 130.355c-.487-4.386-3.567-9.44-8.584-11.948-.464-.232-.928-.348-1.392-.232-.58.232-1.16.58-1.74.928a29.443 29.443 0 0 0-3.178 1.721c-4.056-.458-9.834 4.447-26.287 13.36-.116.116.114.459.348.348 7.157-3.41 14.387-8.121 21.113-11.484 1.276-.812 2.784-1.276 4.292-1.508a9.045 9.045 0 0 1 4.988 2.32c2.9 2.32 4.756 5.568 5.452 9.165.232.812.348 1.74.348 2.668.116.464.116.928 0 1.508-.116.348-.348.696-.696 1.044-.464.58-.928 1.16-1.508 1.624-8.924 9.881-13.594 15.029-20.185 21.113-.58.464.232 1.16.696.696 3.667-3.054 5.825-5.593 9.628-9.396 5.403-5.578 8.6-9.361 11.948-13.225.464-.464.696-.928.928-1.508.033-.268.057-.536.071-.804 1.589-1.43 2.233-2.161 3.293-3.373.58-.928.812-1.972.464-3.016l.001-.001Zm-3.132 4.64c-.209.186-.418.362-.627.533-.226-4.073-1.895-7.79-4.477-10.741-1.823-2.006-4.386-3.425-5.78-3.797 2.589-1.207 2.789-1.737 4.387-2.003.696.116 1.392.348 1.972.812 4.65 3.008 6.859 7.667 6.96 11.716.035 1.392-1.392 2.552-2.436 3.48h.001Z"></path><path id="vector_6" fill="#959595" d="M189.13 130.587c-6.496-3.53-18.76-8.836-20.301-9.396a5.81 5.81 0 0 0-2.629-.344c-1.51-.934-3.896-2.273-4.381-2.505-.421-.202-.844-.332-1.226-.284-1.044.232-2.088.812-2.9 1.508-2.42 1.727-4.17 3.765-5.568 6.96-.348.928-.696 1.972-.812 3.016-.232 1.044-.232 2.088 0 3.016.58 1.16 1.508 2.088 2.436 2.9 1.506 1.693 1.089.546 1.276 1.856a7.43 7.43 0 0 0 1.508 2.204c.384.384 15.26 17.512 20.997 21.925.464.464 1.276-.348.696-.696-2.784-2.436-5.385-5.049-7.888-7.772-3.035-3.302-9.768-10.26-13.109-14.269-.696-.812-1.392-1.392-1.392-2.552 0-1.74.348-3.364.812-4.988.928-3.132 2.9-5.916 5.568-7.888 1.276-1.16 3.016-1.74 4.756-1.972 1.508.232 3.016.696 4.292 1.508 5.916 2.552 11.833 5.22 17.633 7.888.348.348.58 0 .232-.116v.001Zm-33.757 1.972c-.203 1.419-.201.497-.402 2.787a9.89 9.89 0 0 1-.642-.583c-.928-.928-2.472-1.973-2.436-3.48a12.96 12.96 0 0 1 2.088-6.729c1.721-3.099 5.1-5.368 6.866-5.662.624.089 3.208 1.481 4.374 2.124-4.257 1.077-8.706 5.83-9.848 11.542v.001Z"></path><path id="vector_7" fill="#959595" d="M122.659 69.685c-6.426-17.134-32.768-18.116-40.37-1.392-3.596 7.772-.812 16.821 3.364 23.897 2.448 4.116 5.214 7.912 7.279 12.104-.675.111-1.156.283-1.363 1.004-.348 1.972-.58 3.944-.464 5.917-.116 2.204 0 4.408.116 6.612 0 .232.116.464.348.464 3.731.772 14.418 1.618 21.113.232.232-.116.348-.232.348-.464.197-3.753.305-8.828-.348-12.528-.226-.789-.779-.921-1.449-1.034 5.768-11.116 8.888-12.244 11.773-22.631 1.16-4.06 1.044-8.236-.348-12.181h.001Zm-10.788 37.006c.335 3.58.454 7.268.254 10.856-4.875.995-14.834.823-19.999-.232a74.23 74.23 0 0 1-.129-4.258c5.967.034 15.556.283 18.829.362.232 0 .348-.232.348-.464 0-.116-.116-.232-.348-.348-1.184-.015-16.691-.333-18.824-.315.014-1.17.061-2.339.148-3.503 3.055-.013 6.122-.263 9.29-.263 8.578 0 7.111.148 9.502.148.464 0 .464-.696 0-.696-6.742-.482-13.225-.21-18.745.224.051-.583.112-1.165.184-1.743 0-1.26.129-1.392 1.624-1.392 6.669-.834 15.121-.252 17.517.348.232.232.232.812.348 1.276h.001Zm5.336-14.153c-2.384 3.861-5.556 7.558-6.886 11.847-8.07-.961-9.555-.99-16.457-.207-2.062-6.365-7.652-10.338-11.226-21.384-2.512-7.765-.597-16.206 6.496-21.461 10.615-7.719 27.215-4.116 32.249 8.004 3.248 7.772-.116 16.473-4.176 23.201Z"></path><path id="vector_8" fill="#959595" d="M44.67 122.05a.913.913 0 1 0 0-1.826.913.913 0 0 0 0 1.826Z"></path><path id="vector_9" fill="#959595" d="M160.175 122.218a.913.913 0 1 0 0-1.827.913.913 0 0 0 0 1.827Z"></path><path id="vector_10" fill="#959595" d="M73.473 106.342c-.116-1.044-.926-1.293-1.74-1.392-1.157-.14-2.32-.116-3.48 0-4.633.22-9.897 2.116-13.689 5.684-.348.116-.116.464.232.348 2.088-1.508 4.387-2.718 6.844-3.712 3.629-1.468 6.59-1.392 9.396-1.392.696 0 1.624.116 1.044.928-2.713 2.712-6.136 4.737-10.208 6.032-.232.116-.348.232-.348.464 0 3.409-1.378 6.46-3.596 9.048-.696.812-1.624 1.508-2.436 2.204-.465.233.062 1.085.58.812 1.057-.557 1.972-1.393 2.668-2.32 2.312-2.643 3.725-5.556 3.823-9.386 3.343-1.054 6.365-2.755 9.169-4.999.696-.58 1.856-1.276 1.74-2.32l.001.001Z"></path><path id="Subtract_5" fill="#959595" fill-rule="evenodd" d="M138.436 54.14c0-.348-.232-.58-.58-.58-24.763-3.323-48.351-4.204-72.851.696-.479.068-.604.55-.459.886-1.112 6.903-1.795 19.008-1.977 26.26-.189 8.2-.073 16.588.498 24.927.435-.126.873-.24 1.315-.342-1.307-17.907-.173-32.75.845-46.065.118-1.536.234-3.052.344-4.55 13.666-2.706 24.075-3.34 35.914-3.285-.008.801.045 1.94.125 3.623.187 3.956.516 10.922.516 23.603.291 24.136-.179 32.051-.907 44.311l-.131 2.218c-12.003.612-25.671 1.49-32.066 1.901l-.002.001-.035.002-1.904.122a226.021 226.021 0 0 1-2.157-15.681 29.33 29.33 0 0 1-1.326.533c.522 5.326 1.249 10.607 2.219 15.78.116.232.232.348.464.348 9.512-.58 18.909-1.044 28.421-1.508l1.539-.076c15.302-.757 28.711-1.42 42.775-.504.348 0 .574-.232.58-.58.062-3.376.211-7.216.374-11.434l0-.001.105-2.74a27.021 27.021 0 0 1-.86-.408c-.087 2.703-.262 5.422-.436 8.138l0 .001a361.249 361.249 0 0 0-.342 5.814c-11.998-.69-23.996-.369-35.963.221 1.515-19.513.479-67.446 0-73.678 7.685.066 17.943.489 34.726 2.643 2.062 16.738 2.451 33.999 2.15 50.928.316.049.631.105.944.166.479-14.907.626-33.06-1.858-51.689v-.001Z" clip-rule="evenodd"></path><path id="vector_11" fill="#959595" d="M150.848 110.519c-3.248-3.364-8.12-5.104-12.645-5.568-1.16-.116-2.436-.232-3.596-.116-.812 0-1.856.116-2.32.812-.464.696.232 1.74.812 2.204 2.813 2.588 6.173 4.521 9.866 5.694.064 2.306.699 4.523 1.734 6.487 1.022 1.938 2.818 4.315 4.756 5.336.229.121.464.116.58-.116.116-.232.116-.464-.116-.58-.812-.812-1.624-1.392-2.436-2.204-2.285-2.666-3.42-5.706-3.596-9.048 0-.232-.116-.464-.348-.464-2.552-.812-4.988-1.972-7.192-3.48a8.76 8.76 0 0 1-1.624-1.276 4.945 4.945 0 0 1-1.392-1.276c-.58-.812.464-.928 1.044-.928 6.061 0 10.647 1.065 16.24 5.104.232 0 .464-.348.232-.58l.001-.001Z"></path></g></g></svg>